<svg xmlns="http://www.w3.org/2000/svg" width="87.451" height="87" viewBox="0 0 87.451 87">
  <g id="icon" transform="translate(0)">
    <ellipse id="Ellipse_42" data-name="Ellipse 42" cx="27.5" cy="34.5" rx="27.5" ry="34.5" transform="translate(32.451)" fill="#f2f2f2"/>
    <g id="Group_49" data-name="Group 49" transform="translate(0 34.754)">
      <path id="Path_93" data-name="Path 93" d="M45,38.1a1.074,1.074,0,0,1-.483-.072l-19.9-8.051A1.958,1.958,0,0,1,23.6,28.181V-4.192a1.888,1.888,0,0,1,1.016-1.79l19.9-8.053a1.342,1.342,0,0,1,.51-.114.982.982,0,0,1,.445.109l19.91,8.056A1.959,1.959,0,0,1,66.4-4.192V28.1a1.89,1.89,0,0,1-1.016,1.791l-19.9,8.137A1.073,1.073,0,0,1,45,38.1ZM46.507,5.2V33.7l6.974-2.792V20.13c0-1.063.617-1.864,1.436-1.864a1.7,1.7,0,0,1,1.505,1.864v9.5L63.4,26.841v-28.5Zm-19.9,21.64L43.261,33.6h.306V5.2L36.593,2.408V17.164a1.7,1.7,0,0,1-1.505,1.864,1.7,1.7,0,0,1-1.5-1.864V1.131L26.609-1.66ZM43.026-5.482A1.571,1.571,0,0,1,44.469-4.27a1.989,1.989,0,0,1-.907,2.383L39.713-.2,45,1.922,60.09-4.192,45-10.307,29.915-4.192l5.244,2.134,7.383-3.336A1.385,1.385,0,0,1,43.026-5.482Z" transform="translate(-1.856 14.15)"/>
      <path id="Path_94" data-name="Path 94" d="M-6.7,4.329A1.7,1.7,0,0,1-8.2,2.464,1.7,1.7,0,0,1-6.7.6h12.1c.783,0,1.444.827,1.505,1.883A1.689,1.689,0,0,1,5.407,4.329Z" transform="translate(8.2 11.9)"/>
      <path id="Path_95" data-name="Path 95" d="M-6.7,18.229a1.7,1.7,0,0,1-1.5-1.864A1.7,1.7,0,0,1-6.7,14.5h12.1a1.737,1.737,0,0,1,1.5,1.864,1.7,1.7,0,0,1-1.5,1.864Z" transform="translate(8.2 9.78)"/>
      <path id="Path_96" data-name="Path 96" d="M-6.7,32.13a1.7,1.7,0,0,1-1.5-1.864A1.7,1.7,0,0,1-6.7,28.4h12.1a1.737,1.737,0,0,1,1.5,1.865,1.7,1.7,0,0,1-1.5,1.864Z" transform="translate(8.2 7.659)"/>
    </g>
  </g>
</svg>
