<svg id="icon" xmlns="http://www.w3.org/2000/svg" width="79.049" height="90" viewBox="0 0 79.049 90">
  <ellipse id="Ellipse_43" data-name="Ellipse 43" cx="28" cy="34.5" rx="28" ry="34.5" transform="translate(23.049)" fill="#fbb03b"/>
  <g id="noun_payment_2281176" transform="translate(0 31)">
    <path id="Path_87" data-name="Path 87" d="M7.21,89.555a1.263,1.263,0,0,1,.007-2.467,1.135,1.135,0,0,1,.994,1.234,1.4,1.4,0,0,1-.294.875.907.907,0,0,1-.707.359Z" transform="translate(-3.259 -35.706)"/>
    <path id="Path_88" data-name="Path 88" d="M9.2,85.379H0V82.426H6.821V67.292H0V64.339H9.2Z" transform="translate(0 -26.379)"/>
    <path id="Path_89" data-name="Path 89" d="M35.209,80.67H22.659V65.69l.141-.326a8.842,8.842,0,0,1,3.336-3.9,8.539,8.539,0,0,1,8.459-.275,23.032,23.032,0,0,1,2.533,1.5c.675.439,1.313.853,1.972,1.2a5.529,5.529,0,0,0,.851.306A3.835,3.835,0,0,1,42.873,66.5a8.487,8.487,0,0,1,.358,3.206l5.991-.11,3.112-4.27a2.837,2.837,0,0,1,4.6-.3,4.738,4.738,0,0,1,.243,5.7L52.485,77.21ZM25.042,77.717h9.976l16.255-3.255L55.4,68.755a1.254,1.254,0,0,0,.219-.815,1.172,1.172,0,0,0-.329-.756.76.76,0,0,0-1.187.125L50.3,72.534l-14.753.27-.035-2.953,5.336-.1a5.813,5.813,0,0,0-.153-2.065c-.091-.257-.885-.5-1.311-.63a6.961,6.961,0,0,1-1.208-.453c-.751-.393-1.463-.856-2.151-1.3a21.078,21.078,0,0,0-2.288-1.358,6.573,6.573,0,0,0-6.5.146,6.3,6.3,0,0,0-2.188,2.367Z" transform="translate(-11.872 -24.683)"/>
    <path id="Path_90" data-name="Path 90" d="M61.594,6.59V3.451L54.006,0,39.349,9.34H26.7V31.317H55.739V25.093c.4.018.785.035,1.166.071.238.018.476.029.714.029a9.963,9.963,0,0,0,3.975-.879V21.157l-.033.018a8.168,8.168,0,0,1-4.5,1.044c-.433-.035-.871-.059-1.323-.077-.762-.024-1.547-.018-2.38.018-1.147.047-2.375.159-3.718.33l-1.466.189a1.489,1.489,0,0,1-1.524-1.48,1.715,1.715,0,0,1,1.143-1.936l5.551-1.192a.016.016,0,0,0,.014-.006,3.573,3.573,0,0,0,2.38-1.982,5.321,5.321,0,0,0,.1-4.467,3.52,3.52,0,0,0-3.1-2.277H44.552l9.616-6.124Zm-8.855,5.7a.978.978,0,0,1,.619.218,1.656,1.656,0,0,1,0,2.46,1.016,1.016,0,0,1-.419.195l-5.551,1.192c-1.93.412-3.285,2.587-3.118,5.006s1.8,4.276,3.76,4.275a2.794,2.794,0,0,0,.381-.024s3.875-.448,4.946-.5v3.251H29.08V12.29Z" transform="translate(-13.989)"/>
    <rect id="Rectangle_484" data-name="Rectangle 484" width="2.38" height="2.95" transform="translate(26.195 18.853)"/>
  </g>
</svg>
