<svg xmlns="http://www.w3.org/2000/svg" width="70.874" height="83" viewBox="0 0 70.874 83">
  <g id="icon" transform="translate(0)">
    <ellipse id="Ellipse_44" data-name="Ellipse 44" cx="28" cy="34.5" rx="28" ry="34.5" transform="translate(14.874)" fill="#f2f2f2"/>
    <g id="noun_guarantee_2519048" transform="translate(0 31)">
      <path id="Path_91" data-name="Path 91" d="M43.687,10.7l-18.4-6.632a1.2,1.2,0,0,0-.839,0h0L6.045,10.7A1.822,1.822,0,0,0,5,12.456V32.37C5,49.7,23.718,55.7,24.52,55.942a1.174,1.174,0,0,0,.736-.009c1.148-.356,19.491-6.395,19.491-23.563V12.456a1.816,1.816,0,0,0-1.06-1.751ZM41.8,32.37c0,13.319-14.456,19.066-16.929,19.914C22.4,51.436,7.944,45.716,7.944,32.37V13.834L24.873,7.722l16.929,6.1Z" transform="translate(-5 -3.997)"/>
      <path id="Path_92" data-name="Path 92" d="M28.689,19.824v1.907c-2.252.489-3.83,3.026-3.639,5.849s2.089,5,4.375,5.015h2.208a1.867,1.867,0,0,1,0,3.649H27.217a1.867,1.867,0,0,0,0,3.649h1.472v1.824a1.677,1.677,0,0,0,1.472,1.824,1.677,1.677,0,0,0,1.472-1.824V39.894c2.439,0,4.416-2.451,4.416-5.473s-1.977-5.473-4.416-5.473H29.425a1.677,1.677,0,0,1-1.472-1.824A1.677,1.677,0,0,1,29.425,25.3h4.416a1.677,1.677,0,0,0,1.472-1.824,1.677,1.677,0,0,0-1.472-1.824H31.634V19.824A1.677,1.677,0,0,0,30.161,18,1.677,1.677,0,0,0,28.689,19.824Z" transform="translate(-10.288 -5.226)"/>
    </g>
  </g>
</svg>
