<svg xmlns="http://www.w3.org/2000/svg" width="78.768" height="89" viewBox="0 0 78.768 89">
  <g id="icon" transform="translate(0)">
    <ellipse id="Ellipse_45" data-name="Ellipse 45" cx="27.5" cy="34.5" rx="27.5" ry="34.5" transform="translate(23.768)" fill="#f2f2f2"/>
    <g id="noun_materials_308312" transform="translate(0 31)">
      <ellipse id="Ellipse_47" data-name="Ellipse 47" cx="1.394" cy="1.727" rx="1.394" ry="1.727" transform="translate(11.978 35.765)"/>
      <path id="Path_111" data-name="Path 111" d="M52.871,5.977H21.636V25.265H6.615V63.977H37.85V44.689H52.871V5.977ZM50.44,14.225l-12.59,15.6V25.265h-4.63L46.243,9.125l-.108-.134h4.3v5.234ZM35.419,44.592c-2.087-.435-5.327-.925-6.492,3.94a34.488,34.488,0,0,1-3.665,7.984,27.407,27.407,0,0,0-2.219,4.447H19.192a12.092,12.092,0,0,1,1.745-6.38,8.985,8.985,0,0,1,1.834-1.914c1.58-1.354,3.546-3.039,4.148-7.815a18.212,18.212,0,0,0-.816-8.543,18.5,18.5,0,0,1-.87-8.032h3.561c.1.615.186,1.252.276,1.926.51,3.808,1.145,8.546,5.228,11.15.228.146.377.247.472.314a1.763,1.763,0,0,0,.65.527v2.4Zm-19.76,2.68A17.036,17.036,0,0,1,15.9,42.68a14.187,14.187,0,0,1,1.664-4.158,20.063,20.063,0,0,0,2.7-10.244h2.526a22,22,0,0,0,1.03,9.071,14.727,14.727,0,0,1,.7,7.039,7.575,7.575,0,0,1-3.128,5.8,11.241,11.241,0,0,0-2.35,2.51,15.57,15.57,0,0,0-2.278,8.263H14.22C15.91,53.589,15.772,50.1,15.658,47.272Zm19.76-8.591-.009-.006c-3-1.911-3.456-5.337-3.942-8.964-.063-.473-.131-.954-.2-1.433h4.152ZM24.068,22.6,35.047,8.991h7.866L29.782,25.265H24.068ZM31.609,8.991l-7.541,9.346V8.991ZM12.825,28.279a54.859,54.859,0,0,1-2.27,7.772c-.5,1.459-1.012,2.983-1.508,4.562V28.279Zm-3.778,23A75.549,75.549,0,0,1,12.8,37.219a50.243,50.243,0,0,0,2.5-8.94H17.83a16.583,16.583,0,0,1-2.291,8.574,17.364,17.364,0,0,0-1.994,5.071,20.512,20.512,0,0,0-.316,5.5c.108,2.71.242,6.068-1.542,13.542H9.047V51.28Zm16.73,9.684c.417-.842,1-1.87,1.477-2.719a36.8,36.8,0,0,0,4-8.854c.547-2.283,1.531-2.3,4-1.775l.162.034V60.963ZM37.85,34.09l12.59-15.6V28.643L39.925,41.675H37.85V34.09Zm5.513,7.585L50.44,32.9v8.77Z" transform="translate(-6.615 -5.977)"/>
    </g>
    <g id="noun_materials_308312-2" data-name="noun_materials_308312" transform="translate(0 31)">
      <ellipse id="Ellipse_47-2" data-name="Ellipse 47" cx="1.394" cy="1.727" rx="1.394" ry="1.727" transform="translate(11.978 35.765)"/>
      <path id="Path_111-2" data-name="Path 111" d="M52.871,5.977H21.636V25.265H6.615V63.977H37.85V44.689H52.871V5.977ZM50.44,14.225l-12.59,15.6V25.265h-4.63L46.243,9.125l-.108-.134h4.3v5.234ZM35.419,44.592c-2.087-.435-5.327-.925-6.492,3.94a34.488,34.488,0,0,1-3.665,7.984,27.407,27.407,0,0,0-2.219,4.447H19.192a12.092,12.092,0,0,1,1.745-6.38,8.985,8.985,0,0,1,1.834-1.914c1.58-1.354,3.546-3.039,4.148-7.815a18.212,18.212,0,0,0-.816-8.543,18.5,18.5,0,0,1-.87-8.032h3.561c.1.615.186,1.252.276,1.926.51,3.808,1.145,8.546,5.228,11.15.228.146.377.247.472.314a1.763,1.763,0,0,0,.65.527v2.4Zm-19.76,2.68A17.036,17.036,0,0,1,15.9,42.68a14.187,14.187,0,0,1,1.664-4.158,20.063,20.063,0,0,0,2.7-10.244h2.526a22,22,0,0,0,1.03,9.071,14.727,14.727,0,0,1,.7,7.039,7.575,7.575,0,0,1-3.128,5.8,11.241,11.241,0,0,0-2.35,2.51,15.57,15.57,0,0,0-2.278,8.263H14.22C15.91,53.589,15.772,50.1,15.658,47.272Zm19.76-8.591-.009-.006c-3-1.911-3.456-5.337-3.942-8.964-.063-.473-.131-.954-.2-1.433h4.152ZM24.068,22.6,35.047,8.991h7.866L29.782,25.265H24.068ZM31.609,8.991l-7.541,9.346V8.991ZM12.825,28.279a54.859,54.859,0,0,1-2.27,7.772c-.5,1.459-1.012,2.983-1.508,4.562V28.279Zm-3.778,23A75.549,75.549,0,0,1,12.8,37.219a50.243,50.243,0,0,0,2.5-8.94H17.83a16.583,16.583,0,0,1-2.291,8.574,17.364,17.364,0,0,0-1.994,5.071,20.512,20.512,0,0,0-.316,5.5c.108,2.71.242,6.068-1.542,13.542H9.047V51.28Zm16.73,9.684c.417-.842,1-1.87,1.477-2.719a36.8,36.8,0,0,0,4-8.854c.547-2.283,1.531-2.3,4-1.775l.162.034V60.963ZM37.85,34.09l12.59-15.6V28.643L39.925,41.675H37.85V34.09Zm5.513,7.585L50.44,32.9v8.77Z" transform="translate(-6.615 -5.977)"/>
    </g>
    <g id="noun_materials_308312-3" data-name="noun_materials_308312" transform="translate(0 31)">
      <ellipse id="Ellipse_47-3" data-name="Ellipse 47" cx="1.394" cy="1.727" rx="1.394" ry="1.727" transform="translate(11.978 35.765)"/>
      <path id="Path_111-3" data-name="Path 111" d="M52.871,5.977H21.636V25.265H6.615V63.977H37.85V44.689H52.871V5.977ZM50.44,14.225l-12.59,15.6V25.265h-4.63L46.243,9.125l-.108-.134h4.3v5.234ZM35.419,44.592c-2.087-.435-5.327-.925-6.492,3.94a34.488,34.488,0,0,1-3.665,7.984,27.407,27.407,0,0,0-2.219,4.447H19.192a12.092,12.092,0,0,1,1.745-6.38,8.985,8.985,0,0,1,1.834-1.914c1.58-1.354,3.546-3.039,4.148-7.815a18.212,18.212,0,0,0-.816-8.543,18.5,18.5,0,0,1-.87-8.032h3.561c.1.615.186,1.252.276,1.926.51,3.808,1.145,8.546,5.228,11.15.228.146.377.247.472.314a1.763,1.763,0,0,0,.65.527v2.4Zm-19.76,2.68A17.036,17.036,0,0,1,15.9,42.68a14.187,14.187,0,0,1,1.664-4.158,20.063,20.063,0,0,0,2.7-10.244h2.526a22,22,0,0,0,1.03,9.071,14.727,14.727,0,0,1,.7,7.039,7.575,7.575,0,0,1-3.128,5.8,11.241,11.241,0,0,0-2.35,2.51,15.57,15.57,0,0,0-2.278,8.263H14.22C15.91,53.589,15.772,50.1,15.658,47.272Zm19.76-8.591-.009-.006c-3-1.911-3.456-5.337-3.942-8.964-.063-.473-.131-.954-.2-1.433h4.152ZM24.068,22.6,35.047,8.991h7.866L29.782,25.265H24.068ZM31.609,8.991l-7.541,9.346V8.991ZM12.825,28.279a54.859,54.859,0,0,1-2.27,7.772c-.5,1.459-1.012,2.983-1.508,4.562V28.279Zm-3.778,23A75.549,75.549,0,0,1,12.8,37.219a50.243,50.243,0,0,0,2.5-8.94H17.83a16.583,16.583,0,0,1-2.291,8.574,17.364,17.364,0,0,0-1.994,5.071,20.512,20.512,0,0,0-.316,5.5c.108,2.71.242,6.068-1.542,13.542H9.047V51.28Zm16.73,9.684c.417-.842,1-1.87,1.477-2.719a36.8,36.8,0,0,0,4-8.854c.547-2.283,1.531-2.3,4-1.775l.162.034V60.963ZM37.85,34.09l12.59-15.6V28.643L39.925,41.675H37.85V34.09Zm5.513,7.585L50.44,32.9v8.77Z" transform="translate(-6.615 -5.977)"/>
    </g>
  </g>
</svg>
