<svg xmlns="http://www.w3.org/2000/svg" width="27.022" height="27.021" viewBox="0 0 27.022 27.021">
  <path id="Icon_awesome-linkedin-in" data-name="Icon awesome-linkedin-in" d="M6.049,27.022H.446V8.981h5.6Zm-2.8-20.5A3.26,3.26,0,1,1,6.489,3.245,3.272,3.272,0,0,1,3.244,6.52Zm23.772,20.5h-5.59V18.24c0-2.093-.042-4.777-2.913-4.777-2.913,0-3.359,2.274-3.359,4.626v8.933h-5.6V8.981h5.373v2.461h.078a5.887,5.887,0,0,1,5.3-2.913c5.67,0,6.712,3.734,6.712,8.583v9.91Z" transform="translate(0 -0.001)" fill="#e49d2d"/>
</svg>
