<svg xmlns="http://www.w3.org/2000/svg" width="28.255" height="22.948" viewBox="0 0 28.255 22.948">
  <path id="Icon_awesome-twitter" data-name="Icon awesome-twitter" d="M25.351,9.1c.018.251.018.5.018.753,0,7.655-5.827,16.476-16.476,16.476A16.364,16.364,0,0,1,0,23.73a11.98,11.98,0,0,0,1.4.072,11.6,11.6,0,0,0,7.189-2.474,5.8,5.8,0,0,1-5.414-4.016,7.3,7.3,0,0,0,1.094.09,6.125,6.125,0,0,0,1.524-.2A5.792,5.792,0,0,1,1.147,11.52v-.072a5.832,5.832,0,0,0,2.618.735A5.8,5.8,0,0,1,1.972,4.439a16.46,16.46,0,0,0,11.94,6.06,6.537,6.537,0,0,1-.143-1.327A5.8,5.8,0,0,1,23.791,5.209a11.4,11.4,0,0,0,3.675-1.4A5.775,5.775,0,0,1,24.92,7a11.609,11.609,0,0,0,3.335-.9,12.448,12.448,0,0,1-2.9,2.994Z" transform="translate(0 -3.381)" fill="#e49d2d"/>
</svg>
